<?xml version="1.0" encoding="utf-8"?>
<!-- Generator: Adobe Illustrator 23.0.4, SVG Export Plug-In . SVG Version: 6.00 Build 0)  -->
<svg version="1.1" id="antiracist" xmlns="http://www.w3.org/2000/svg" xmlns:xlink="http://www.w3.org/1999/xlink" x="0px" y="0px"
	 viewBox="0 0 512 512" style="enable-background:new 0 0 512 512;" xml:space="preserve">
<path id="antiracist_1_" d="M407.4,100.2c-14.6-9.1-30.8,20-45.4,46.9c-14.7,26.9-26.9,38.1-32.3,37.3c-5.5-0.8-0.9-28.6,8.2-58.1
	c12.5-40.2,28.3-83.7,9.7-90.8c-18.5-7.1-29.4,37-43.4,79.3c-10.3,31.2-17.2,61-29.1,61.7c-11.9,0.7-3.6-38.1,0.8-75.1
	c5.4-44.8,9.6-91.4-9-91.3c-17.5,0.1-23.6,43.2-29.5,86.9c-5.5,40.8-7.8,80.1-18.4,82.8s-19.7-24-29.1-52.1
	c-12.3-36.6-22.3-78.9-43.2-73.2c-37.1,10.2,37.5,144.3,38.1,181.5c0.6,37.2-3.7,40.5-20.1,42c-16.5,1.5-68-35.3-102.4-16.4
	s34.8,34.3,61.9,51.5c17.2,10.9,36.7,26,53.3,38.8c9.6,7.3,20.2,10,24,20.8c10.3,29.6-11.6,106.3-10.3,121.7
	c1.3,15.5,106.8,6.5,136,4.7c29.1-1.8-22.6-110.1,1-123.8c23.6-13.7,34.6-40.5,32.1-118.6c-1.1-35.2,12.6-66.3,28.3-91.6
	C407.9,134.1,423.4,110.2,407.4,100.2z M335.5,309c0,5-5,5-5,5H212.2c0,0-5,0-5-5s0-17.8,0-22.8s5-5,5-5h118.2c0,0,5,0,5,5
	C335.5,291.3,335.5,304,335.5,309z M335.5,253.5c0,5-5,5-5,5H212.2c0,0-5,0-5-5c0-12.5,0-17.7,0-22.8s5-5,5-5h118.2c0,0,5,0,5,5
	C335.5,234.7,335.5,248.1,335.5,253.5z"/>
</svg>
