<?xml version="1.0" encoding="utf-8"?>
<svg version="1.1" id="equityworldwide" xmlns="http://www.w3.org/2000/svg" xmlns:xlink="http://www.w3.org/1999/xlink" x="0px"
	 y="0px" viewBox="0 0 512 512" style="enable-background:new 0 0 512 512;" xml:space="preserve">
<path id="hand" d="M407.4,118.2c-14.6-9.1-30.8,20-45.4,46.9c-14.7,26.9-27.9,43.8-34,41.9c-6.1-1.9,0.8-33.3,9.9-62.8
	c12.5-40.2,28.3-83.7,9.7-90.8c-18.5-7.1-29.4,37-43.4,79.3c-10.3,31.2-16.9,66.5-27.1,65.9c-10.2-0.5-5.7-45.1-10.1-81.5
	c-5.4-44.8-5.6-92.5-25.8-89.2c-20.2,3.2-11.6,46.8-11.2,90.9c0.8,37.4,6.7,75.5-6.5,82.1s-21.2-25.4-33.6-55.4
	c-12.3-36.6-22.3-78.9-43.2-73.2c-37.1,10.2,37.5,144.3,38.1,181.5c0.6,37.2-3.7,40.5-20.1,42c-16.5,1.5-68-35.3-102.4-16.4
	s34.8,34.3,61.9,51.5c17.2,10.9,36.7,26,53.3,38.8c9.6,7.3,20.2,10,24,20.8c10.3,29.6-11.6,106.3-10.3,121.7
	c1.3,15.5,106.8,6.5,136,4.7c29.1-1.8-22.6-110.1,1-123.8c23.6-13.7,34.6-40.5,32.1-118.6c-1.1-35.2,12.6-66.3,28.3-91.6
	C407.9,152.1,423.4,128.2,407.4,118.2z M335.5,327c0,5-5,5-5,5H212.2c0,0-5,0-5-5s0-17.8,0-22.8s5-5,5-5h118.2c0,0,5,0,5,5
	C335.5,309.3,335.5,322,335.5,327z M335.5,271.5c0,5-5,5-5,5H212.2c0,0-5,0-5-5c0-12.5,0-17.7,0-22.8s5-5,5-5h118.2c0,0,5,0,5,5
	C335.5,252.7,335.5,266.1,335.5,271.5z"/>
</svg>
